<svg xmlns="http://www.w3.org/2000/svg" viewBox="0 0 480 300" fill="none">
  <g stroke="#2f6f4f" stroke-linecap="round" stroke-linejoin="round">
    <path d="M75 255 H32 a12 12 0 0 1 -12 -12 V32 a12 12 0 0 1 12 -12 H448 a12 12 0 0 1 12 12 V243 a12 12 0 0 1 -12 12 H405" stroke-width="6"/>
    <path d="M153 96 A46 46 0 1 0 153 164" stroke-width="16"/>
    <path d="M80 130 H166" stroke-width="16"/>
    <path d="M278 96 A46 46 0 1 0 278 164" stroke-width="16"/>
    <circle cx="360" cy="130" r="46" stroke-width="16"/>
  </g>
  <path d="M96 126 C101 108 115 95 137 90 C131 108 119 121 96 126 Z" fill="#2f6f4f"/>
  <path d="M99 124 L133 93" stroke="#ffffff" stroke-width="4" stroke-linecap="round"/>
  <text x="240" y="264" text-anchor="middle" font-family="'Space Grotesk',Inter,system-ui,sans-serif" font-size="26" font-weight="600" letter-spacing="6" fill="#2f6f4f">TRANSPARÊNCIA</text>
</svg>
